<svg width="13" height="16" viewBox="0 0 13 16" fill="none" xmlns="http://www.w3.org/2000/svg">
<path d="M9.55451 5.30854C9.21414 5.28184 8.8493 5.36337 8.28944 5.57764C8.33622 5.55961 7.75549 5.78687 7.59214 5.84458C7.2309 5.97084 6.9337 6.0401 6.60052 6.0401C6.27094 6.0401 5.96727 5.97373 5.61826 5.85613C5.49605 5.81437 5.37488 5.76963 5.25485 5.72194L4.93175 5.59424C4.46544 5.41098 4.20351 5.34172 3.98546 5.3475C3.15576 5.3576 2.37138 5.83809 1.91515 6.63314C0.985416 8.25139 1.50066 11.1776 2.86 13.1487C3.5832 14.1905 3.97971 14.5628 4.13874 14.5577C4.29849 14.5505 4.41651 14.5166 4.70291 14.3954L4.82237 14.3442C5.54629 14.0346 6.0529 13.8983 6.8164 13.8983C7.55112 13.8983 8.0419 14.0325 8.73704 14.3326L8.85793 14.3846C9.14362 14.5072 9.24652 14.5346 9.42786 14.5303C9.68476 14.5267 10.0021 14.2294 10.7066 13.1927C10.8995 12.9106 11.07 12.6134 11.2175 12.3125C11.1207 12.2326 11.0268 12.1491 10.9362 12.0622C10.0079 11.1762 9.43434 9.98146 9.41851 8.50534C9.4035 7.41312 9.76182 6.34865 10.4339 5.4889C10.1519 5.38424 9.85557 5.32342 9.55523 5.30854M9.66677 3.86994C10.1763 3.90457 11.6356 4.0604 12.5855 5.45427C12.5078 5.49756 10.8412 6.46721 10.8584 8.49308C10.8844 10.9172 12.9741 11.7224 13 11.731C12.9827 11.7916 12.6632 12.8825 11.8947 14.008C11.2298 14.9863 10.5389 15.9559 9.45089 15.9732C8.38011 15.9992 8.0347 15.3412 6.81712 15.3412C5.59091 15.3412 5.21096 15.9559 4.20063 15.9992C3.14712 16.0338 2.35267 14.943 1.67912 13.9733C0.306106 11.9821 -0.738766 8.36322 0.668788 5.91312C1.36825 4.6924 2.61173 3.92188 3.96747 3.90457C4.99507 3.87859 5.97086 4.59717 6.60124 4.59717C7.22298 4.59717 8.33694 3.76605 9.66677 3.86994ZM8.84642 2.55398C8.28512 3.22928 7.36978 3.75739 6.48035 3.68813C6.35945 2.77042 6.80849 1.80943 7.32661 1.21206C7.90517 0.53677 8.87233 0.0346303 9.67541 0C9.77903 0.935018 9.40771 1.87869 8.84642 2.55398Z" fill="white"/>
</svg>
