<svg width="19" height="14" viewBox="0 0 19 14" fill="none" xmlns="http://www.w3.org/2000/svg">
<path d="M0 1.14418L1.1898 -9.53674e-07L7.67036 6.23577C7.77483 6.33569 7.85773 6.45451 7.9143 6.58539C7.97088 6.71627 8 6.85663 8 6.99838C8 7.14014 7.97088 7.28049 7.9143 7.41137C7.85773 7.54225 7.77483 7.66107 7.67036 7.76099L1.1898 14L0.00112152 12.8558L6.08359 7L0 1.14418Z" fill="black"/>
<path d="M11 1.14418L12.1898 -9.53674e-07L18.6704 6.23577C18.7748 6.33569 18.8577 6.45451 18.9143 6.58539C18.9709 6.71627 19 6.85663 19 6.99838C19 7.14014 18.9709 7.28049 18.9143 7.41137C18.8577 7.54225 18.7748 7.66107 18.6704 7.76099L12.1898 14L11.0011 12.8558L17.0836 7L11 1.14418Z" fill="black"/>
</svg>
