<svg width="42" height="42" viewBox="0 0 42 42" fill="none" xmlns="http://www.w3.org/2000/svg">
<path d="M31.2206 42C34.9566 42 37.4266 40.9904 39.6162 38.5425C39.7884 38.3712 39.9387 38.1779 40.1109 38.0056C41.399 36.5673 42 35.15 42 33.7978C42 32.2514 41.0985 30.813 39.1874 29.481L32.9393 25.144C31.0062 23.8128 28.7515 23.6626 26.9476 25.4445L25.2949 27.0981C24.8002 27.5919 24.3714 27.6139 23.8776 27.3125C22.7398 26.5823 20.399 24.543 18.8095 22.9544C17.1348 21.3008 15.5031 19.4548 14.6657 18.1016C14.3652 17.6069 14.4083 17.1992 14.9021 16.7054L16.5338 15.0518C18.3377 13.2488 18.1874 10.9722 16.8562 9.06208L12.4972 2.81402C11.1871 0.902042 9.74876 0.0216333 8.20229 0.000562076C6.85006 -0.0214252 5.43277 0.601548 3.99442 1.88964C3.80111 2.06187 3.62887 2.21212 3.43556 2.36237C1.0096 4.55194 0 7.02185 0 10.7359C0 16.8777 3.77912 24.3497 10.7153 31.2848C17.6075 38.1779 25.1016 42 31.2206 42ZM31.2426 38.6927C25.7667 38.7999 18.7463 34.5921 13.1843 29.0522C7.58023 23.4693 3.17813 16.2116 3.28531 10.7368C3.32837 8.37406 4.14466 6.33474 5.84138 4.87442C5.96964 4.74616 6.0979 4.63805 6.24815 4.53087C6.87113 3.97202 7.58023 3.67244 8.18122 3.67244C8.82528 3.67244 9.38321 3.90789 9.79181 4.55194L13.9576 10.8C14.4083 11.466 14.4514 12.2182 13.7853 12.8833L11.8962 14.7733C10.3928 16.2547 10.522 18.0586 11.5957 19.4969C12.8188 21.1505 14.9452 23.5554 16.5768 25.187C18.2305 26.8407 20.8278 29.1594 22.4814 30.4044C23.9198 31.4782 25.7457 31.5863 27.2271 30.1039L29.1162 28.2149C29.7822 27.5488 30.5124 27.5919 31.1775 28.0216L37.4257 32.1872C38.0706 32.616 38.3281 33.1529 38.3281 33.7978C38.3281 34.4208 38.0276 35.1079 37.4486 35.751C37.3476 35.8922 37.24 36.0286 37.1261 36.1596C35.6447 37.8343 33.6044 38.6497 31.2426 38.6927Z" fill="#333333"/>
</svg>
