<svg width="150" height="150" viewBox="0 0 150 150" fill="none" xmlns="http://www.w3.org/2000/svg">
<path d="M19.5514 137.684H13.7419L13.8169 134.892V117.45C13.8085 116.667 13.7584 115.884 13.6669 115.106C13.6294 114.734 13.5473 114.369 13.4224 114.017C13.272 113.722 13.0974 113.441 12.9004 113.175L13.2004 112.376H19.6324L26.7214 112.263C27.1668 112.926 27.4353 113.692 27.5014 114.488C27.5864 115.296 27.4869 116.114 27.2104 116.879H26.3269C26.2129 116.333 25.7929 115.868 25.0669 115.484C24.3529 115.102 23.5625 114.886 22.7539 114.851L19.3684 114.701C19.2044 117.629 19.1229 120.538 19.1239 123.428H23.9374C24.3254 123.428 24.6254 123.422 24.8374 123.41C25.1052 123.384 25.3682 123.321 25.6189 123.224C25.911 123.121 26.1771 122.955 26.3989 122.739C26.4817 123.168 26.5253 123.604 26.5294 124.041C26.5294 125.617 25.3574 126.405 23.0134 126.405C22.5364 126.405 21.8594 126.393 20.9824 126.368C20.1054 126.343 19.4724 126.33 19.0834 126.33C19.0714 127.98 19.0904 129.792 19.1404 131.765L19.1959 134.742L19.2904 135.933C19.3094 136.525 19.397 137.112 19.5514 137.684Z" fill="#11237D"/>
<path d="M36.7408 129.384C36.7408 132.932 36.8788 135.699 37.1548 137.684H31.7548L31.9618 124.695C31.9697 123.986 31.9003 123.277 31.7548 122.583C31.6659 122.106 31.5072 121.645 31.2838 121.215C31.128 120.942 30.9312 120.694 30.7003 120.48C30.5597 120.337 30.3946 120.22 30.2128 120.135C30.14 120.107 30.0639 120.088 29.9863 120.08V119.391C31.4553 118.497 32.8418 118.05 34.1458 118.05C36.0018 118.05 36.9293 119.26 36.9283 121.679C36.9283 122.051 36.8973 122.68 36.8353 123.567C36.7723 124.455 36.7408 125.145 36.7408 125.641V129.384ZM31.3063 113.175C31.3002 112.822 31.3676 112.472 31.5042 112.147C31.6408 111.822 31.8437 111.529 32.0998 111.286C32.3484 111.037 32.6448 110.839 32.9714 110.707C33.2979 110.574 33.6479 110.508 34.0003 110.514C34.3395 110.511 34.6758 110.578 34.9879 110.711C35.3 110.843 35.5812 111.04 35.8138 111.286C36.0621 111.533 36.2577 111.828 36.3887 112.153C36.5197 112.477 36.5833 112.825 36.5758 113.175C36.5804 113.511 36.5151 113.845 36.3839 114.155C36.2527 114.465 36.0586 114.744 35.8138 114.975C35.5777 115.216 35.2953 115.406 34.9837 115.535C34.672 115.664 34.3376 115.729 34.0003 115.725C33.2924 115.737 32.6088 115.467 32.0998 114.975C31.8474 114.748 31.6461 114.471 31.5093 114.16C31.3724 113.85 31.3033 113.514 31.3063 113.175Z" fill="#11237D"/>
<path d="M61.0004 136.2V137.037C59.4834 137.805 58.0734 138.189 56.7704 138.19C56.1124 138.174 55.4703 137.985 54.9089 137.641C54.2822 137.29 53.7868 136.745 53.4974 136.087C51.8314 137.487 50.1014 138.187 48.3074 138.187C47.3152 138.194 46.3303 138.017 45.4019 137.667C44.4744 137.308 43.6249 136.773 42.8999 136.092C42.1409 135.392 41.5409 134.437 41.0999 133.227C40.6589 132.017 40.4394 130.617 40.4414 129.027C40.4432 127.973 40.5727 126.924 40.8269 125.901C41.0892 124.851 41.4929 123.842 42.0269 122.901C42.5464 121.963 43.1936 121.101 43.9499 120.34C44.7265 119.575 45.6466 118.971 46.6574 118.563C47.7414 118.116 48.9036 117.891 50.0759 117.9C50.6895 117.912 51.3005 117.984 51.8999 118.116C52.5999 118.258 52.9499 118.354 52.9499 118.404C52.9499 117.622 52.9434 116.899 52.9304 116.236C52.9174 115.573 52.8989 114.968 52.8749 114.421C52.8554 113.932 52.8017 113.444 52.7144 112.962C52.6462 112.578 52.536 112.204 52.3859 111.844C52.2571 111.537 52.0622 111.262 51.8152 111.039C51.5681 110.815 51.2749 110.649 50.9564 110.551V109.863L51.4829 109.584C51.9551 109.337 52.4532 109.144 52.9679 109.006C53.5661 108.827 54.1868 108.733 54.8114 108.727C55.28 108.717 55.7478 108.768 56.2034 108.877C56.576 108.983 56.9156 109.182 57.1904 109.455C57.5179 109.802 57.7423 110.234 57.8384 110.701C57.9927 111.39 58.0637 112.094 58.0499 112.8V113.284C58.0499 113.508 58.0189 114.352 57.9569 115.815C57.8949 117.278 57.8284 119.073 57.7574 121.2C57.6884 123.322 57.6539 125.301 57.6539 127.137C57.6539 128.192 57.6599 129.057 57.6719 129.732C57.6839 130.407 57.7094 131.083 57.7484 131.761C57.7716 132.294 57.8216 132.824 57.8984 133.351C57.9615 133.739 58.0527 134.122 58.1714 134.496C58.2501 134.796 58.3872 135.077 58.5749 135.324C58.746 135.515 58.9459 135.679 59.1674 135.808C59.4125 135.958 59.6838 136.06 59.9669 136.108C60.309 136.162 60.6543 136.192 61.0004 136.2ZM50.3009 135.436C51.3169 135.436 52.1504 135.207 52.8014 134.748L52.8404 130.374V120.879C51.4604 120.544 50.4324 120.376 49.7564 120.376C49.002 120.364 48.2679 120.622 47.6864 121.102C47.0831 121.608 46.6224 122.262 46.3499 123C46.0538 123.761 45.8337 124.549 45.6929 125.353C45.5556 126.14 45.4863 126.937 45.4859 127.735C45.4859 130.154 45.9309 132.043 46.8209 133.401C47.7109 134.759 48.8709 135.436 50.3009 135.432V135.436Z" fill="#11237D"/>
<path d="M77.8914 127.058L77.5509 127.2C76.9119 127.449 76.0469 127.574 74.9559 127.574L66.4194 127.461C66.4434 127.746 66.4569 128.219 66.4569 128.876C66.5059 130.724 67.0669 132.174 68.1399 133.226C69.2129 134.278 70.4069 134.805 71.7219 134.808C72.9068 134.798 74.076 134.534 75.1509 134.036C76.3109 133.515 77.3294 132.609 78.2064 131.319C78.4194 132.077 78.4194 132.879 78.2064 133.637C78.0016 134.36 77.6166 135.02 77.0874 135.554C76.5197 136.119 75.8699 136.595 75.1599 136.967C74.3888 137.377 73.5666 137.684 72.7149 137.879C71.8459 138.08 70.9565 138.181 70.0644 138.179C68.9791 138.188 67.9005 138.008 66.8769 137.648C65.8902 137.293 64.9815 136.75 64.2009 136.05C63.4009 135.338 62.7649 134.38 62.2929 133.176C61.8209 131.972 61.5794 130.589 61.5684 129.026C61.5684 126.98 61.9224 125.125 62.6304 123.462C63.3384 121.799 64.3619 120.482 65.7009 119.511C67.027 118.541 68.6327 118.028 70.2759 118.05C71.1942 118.038 72.1094 118.16 72.9924 118.413C73.7012 118.608 74.3742 118.916 74.9859 119.324C75.5089 119.694 75.9654 120.151 76.3359 120.674C76.6802 121.139 76.9701 121.642 77.1999 122.174C77.4045 122.68 77.5553 123.207 77.6499 123.746C77.7392 124.201 77.8053 124.661 77.8479 125.123C77.8734 125.465 77.8854 125.814 77.8854 126.173L77.8914 127.058ZM70.0314 120.377C69.5422 120.369 69.0626 120.512 68.6574 120.786C68.225 121.096 67.8766 121.508 67.6434 121.986C67.3661 122.515 67.1362 123.067 66.9564 123.636C66.7517 124.305 66.5855 124.985 66.4584 125.673C67.1984 125.661 68.3139 125.624 69.8049 125.562C71.2959 125.5 72.4494 125.463 73.2654 125.45C73.2537 124.852 73.1844 124.257 73.0584 123.672C72.9371 123.109 72.7477 122.562 72.4944 122.045C72.2632 121.56 71.914 121.14 71.4789 120.825C71.0562 120.526 70.5492 120.369 70.0314 120.377Z" fill="#11237D"/>
<path d="M87.7284 137.684H82.3284C82.4034 133.784 82.4409 130.174 82.4409 126.854L82.5354 114.888C82.5354 113.634 82.3319 112.634 81.9249 111.888C81.5179 111.142 81.0645 110.696 80.5645 110.55V109.862L81.0909 109.583C81.5766 109.337 82.087 109.143 82.6134 109.005C83.2244 108.825 83.8575 108.731 84.4944 108.726C85.6944 108.726 86.522 109.037 86.977 109.658C87.432 110.279 87.6574 111.234 87.6534 112.523C87.6534 113.305 87.6159 114.198 87.5409 115.203C87.3809 117.921 87.3009 121.259 87.3009 125.216V130.073C87.3009 131.462 87.3324 132.808 87.3955 134.111C87.4461 135.306 87.5572 136.499 87.7284 137.684Z" fill="#11237D"/>
<path d="M98.0362 129.384C98.0362 132.932 98.1742 135.698 98.4502 137.683H93.0502L93.2587 124.695C93.2669 123.985 93.197 123.277 93.0502 122.583C92.9623 122.106 92.8041 121.645 92.5807 121.215C92.4249 120.942 92.2281 120.694 91.9972 120.48C91.8564 120.336 91.6907 120.219 91.5082 120.135C91.4359 120.107 91.3603 120.088 91.2832 120.079V119.391C92.7512 118.497 94.1372 118.05 95.4412 118.05C97.2972 118.05 98.2247 119.259 98.2237 121.678C98.2237 122.05 98.1927 122.68 98.1307 123.567C98.0677 124.455 98.0362 125.145 98.0362 125.641V129.384ZM92.6017 113.175C92.595 112.823 92.6617 112.473 92.7975 112.148C92.9334 111.823 93.1354 111.529 93.3907 111.286C93.6391 111.037 93.9352 110.84 94.2615 110.707C94.5878 110.574 94.9375 110.509 95.2897 110.514C95.6292 110.511 95.9656 110.578 96.278 110.71C96.5903 110.843 96.8718 111.04 97.1047 111.286C97.353 111.533 97.5486 111.828 97.6795 112.153C97.8105 112.477 97.8742 112.825 97.8667 113.175C97.8713 113.511 97.806 113.845 97.6748 114.155C97.5436 114.465 97.3495 114.744 97.1047 114.975C96.8683 115.216 96.5857 115.406 96.2738 115.535C95.9619 115.664 95.6272 115.729 95.2897 115.725C94.5823 115.737 93.8993 115.467 93.3907 114.975C93.1391 114.748 92.9386 114.47 92.8026 114.16C92.6666 113.85 92.5981 113.514 92.6017 113.175Z" fill="#11237D"/>
<path d="M109.732 115.278L109.298 118.441H112.898C113.306 118.438 113.712 118.391 114.11 118.302C114.544 118.209 114.817 118.051 114.929 117.828C115.009 118.125 115.047 118.432 115.042 118.74C115.042 120.265 113.939 121.028 111.733 121.029C111.533 121.029 111.116 121.01 110.482 120.972C109.848 120.934 109.418 120.915 109.193 120.916V129.495C109.181 129.855 109.181 130.234 109.193 130.63C109.205 131.026 109.222 131.421 109.24 131.812C109.257 132.191 109.321 132.565 109.429 132.928C109.523 133.255 109.659 133.568 109.832 133.86C110.004 134.134 110.248 134.356 110.537 134.502C110.873 134.669 111.244 134.752 111.619 134.743C112.442 134.736 113.26 134.607 114.046 134.361C114.884 134.107 115.412 133.77 115.625 133.347C115.787 133.723 115.853 134.133 115.816 134.541C115.78 134.948 115.643 135.341 115.418 135.682C114.955 136.445 114.231 137.053 113.246 137.506C112.252 137.962 111.17 138.194 110.077 138.186C108.9 138.186 107.925 138.049 107.153 137.776C106.448 137.551 105.833 137.109 105.395 136.512C104.99 135.933 104.708 135.278 104.567 134.586C104.403 133.712 104.327 132.823 104.342 131.934C104.342 130.991 104.405 129.591 104.53 127.734C104.655 125.877 104.717 124.518 104.717 123.658C104.717 122.194 104.605 121.32 104.38 121.035C103.881 120.399 103.211 119.919 102.449 119.65L102.637 118.516C102.789 118.51 102.94 118.485 103.087 118.441C103.387 118.349 103.679 118.235 103.961 118.098C104.454 117.844 104.9 117.507 105.278 117.102C105.811 116.555 106.272 115.942 106.649 115.278H109.732Z" fill="#11237D"/>
<path d="M127.665 137.646L127.215 137.46C126.837 137.296 126.495 137.059 126.21 136.762C125.853 136.43 125.59 136.009 125.448 135.543L122.081 124.95C121.865 124.229 121.592 123.527 121.263 122.85C121.024 122.344 120.741 121.862 120.416 121.407C120.189 121.099 119.934 120.812 119.655 120.55C119.48 120.384 119.291 120.233 119.09 120.1C119.003 120.044 118.908 120 118.809 119.97L118.77 119.281C119.291 118.923 119.857 118.636 120.453 118.426C121.05 118.191 121.684 118.063 122.325 118.05C123.404 118.05 124.194 118.304 124.694 118.812C125.194 119.32 125.594 120.132 125.894 121.249C126.144 122.689 127.147 125.839 128.903 130.699L129.363 131.638C129.645 132.215 129.799 132.541 129.824 132.616L130.011 131.835C130.111 131.385 130.244 130.944 130.407 130.513L132.833 123.646C133.184 122.667 133.359 121.867 133.359 121.246C133.359 120.625 133.146 120.197 132.72 119.962L132.644 119.274C133.512 118.528 134.606 118.097 135.75 118.05C136.65 118.05 137.1 118.521 137.1 119.464C137.1 120.121 136.78 121.238 136.14 122.814L128.474 141.498C128.198 142.168 127.966 142.711 127.778 143.127C127.59 143.543 127.347 144.034 127.05 144.6C126.803 145.086 126.498 145.539 126.14 145.95C125.805 146.311 125.443 146.647 125.058 146.955C124.648 147.288 124.174 147.535 123.666 147.681C123.113 147.833 122.542 147.907 121.968 147.9C120.814 147.9 119.908 147.466 119.25 146.598C118.592 145.73 118.392 144.65 118.65 143.359C118.901 143.669 119.306 143.924 119.864 144.123C120.403 144.319 120.972 144.42 121.547 144.423C122.499 144.423 123.31 144.246 123.981 143.893C124.62 143.573 125.124 143.034 125.402 142.375L127.202 138.45L127.665 137.646Z" fill="#11237D"/>
<path d="M115.732 2.3656C114.773 2.18855 113.8 2.09968 112.825 2.1001H21.943C21.7267 2.1005 21.5193 2.18659 21.3664 2.33954C21.2134 2.49248 21.1274 2.6998 21.127 2.9161V79.1266C21.1257 82.7445 22.3497 86.2563 24.5995 89.0896C50.8345 78.9346 96.949 43.4656 117.749 2.8696C117.089 2.65731 116.415 2.48894 115.732 2.3656Z" fill="#11237D"/>
<path d="M128.872 18.1499V94.3574C128.872 94.5737 128.786 94.781 128.633 94.934C128.48 95.0869 128.272 95.173 128.056 95.1734H37.1741C34.7613 95.1755 32.3791 94.633 30.2051 93.5864C56.9261 82.8899 103.188 46.9169 123.384 6.06592C125.11 7.56977 126.494 9.42688 127.441 11.5116C128.388 13.5964 128.876 15.8602 128.872 18.1499Z" fill="#4DC247"/>
</svg>
