<svg width="13" height="16" viewBox="0 0 13 16" fill="none" xmlns="http://www.w3.org/2000/svg">
<path d="M6.5 0C2.925 0 0 2.88 0 6.4C0 10.72 5.6875 15.6 5.93125 15.84C6.09375 15.92 6.3375 16 6.5 16C6.6625 16 6.90625 15.92 7.06875 15.84C7.3125 15.6 13 10.72 13 6.4C13 2.88 10.075 0 6.5 0ZM6.5 14.16C4.79375 12.56 1.625 9.12 1.625 6.4C1.625 3.76 3.81875 1.6 6.5 1.6C9.18125 1.6 11.375 3.76 11.375 6.4C11.375 9.04 8.20625 12.56 6.5 14.16ZM6.5 3.2C4.7125 3.2 3.25 4.64 3.25 6.4C3.25 8.16 4.7125 9.6 6.5 9.6C8.2875 9.6 9.75 8.16 9.75 6.4C9.75 4.64 8.2875 3.2 6.5 3.2ZM6.5 8C5.60625 8 4.875 7.28 4.875 6.4C4.875 5.52 5.60625 4.8 6.5 4.8C7.39375 4.8 8.125 5.52 8.125 6.4C8.125 7.28 7.39375 8 6.5 8Z" fill="#0086FF"/>
</svg>
