<svg width="54" height="42" viewBox="0 0 54 42" fill="none" xmlns="http://www.w3.org/2000/svg">
<path d="M4.848 42C3.466 42 2.313 41.538 1.389 40.614C0.465 39.69 0.002 38.536 0 37.152V4.848C0 3.466 0.463 2.313 1.389 1.389C2.315 0.464999 3.467 0.002 4.845 0H49.155C50.535 0 51.687 0.462999 52.611 1.389C53.535 2.315 53.998 3.468 54 4.848V37.155C54 38.535 53.537 39.688 52.611 40.614C51.685 41.54 50.533 42.002 49.155 42H4.848ZM27 21.348L3 5.655V37.155C3 37.693 3.173 38.135 3.519 38.481C3.865 38.827 4.308 39 4.848 39H49.155C49.693 39 50.135 38.827 50.481 38.481C50.827 38.135 51 37.692 51 37.152V5.652L27 21.348ZM27 18L50.076 3H3.924L27 18ZM3 5.655V3V37.155C3 37.693 3.173 38.135 3.519 38.481C3.865 38.827 4.308 39 4.848 39H3V5.655Z" fill="black"/>
</svg>
