<svg width="70" height="70" viewBox="0 0 70 70" fill="none" xmlns="http://www.w3.org/2000/svg">
<rect width="70" height="70" rx="12" fill="#0086FF"/>
<path d="M14 25.5455C14 23.8095 14.6942 22.1446 15.93 20.9171C17.1657 19.6896 18.8417 19 20.5893 19H48.4107C50.1583 19 51.8343 19.6896 53.07 20.9171C54.3058 22.1446 55 23.8095 55 25.5455V44.4545C55 46.1905 54.3058 47.8554 53.07 49.0829C51.8343 50.3104 50.1583 51 48.4107 51H20.5893C18.8417 51 17.1657 50.3104 15.93 49.0829C14.6942 47.8554 14 46.1905 14 44.4545V25.5455ZM20.5893 21.9091C19.6184 21.9091 18.6873 22.2922 18.0008 22.9742C17.3143 23.6561 16.9286 24.581 16.9286 25.5455V27.7273H52.0714V25.5455C52.0714 24.581 51.6857 23.6561 50.9992 22.9742C50.3127 22.2922 49.3816 21.9091 48.4107 21.9091H20.5893ZM16.9286 44.4545C16.9286 45.419 17.3143 46.3439 18.0008 47.0258C18.6873 47.7078 19.6184 48.0909 20.5893 48.0909H48.4107C49.3816 48.0909 50.3127 47.7078 50.9992 47.0258C51.6857 46.3439 52.0714 45.419 52.0714 44.4545V30.6364H16.9286V44.4545ZM41.8214 39.3636H46.2143C46.6026 39.3636 46.9751 39.5169 47.2497 39.7897C47.5243 40.0624 47.6786 40.4324 47.6786 40.8182C47.6786 41.204 47.5243 41.5739 47.2497 41.8467C46.9751 42.1195 46.6026 42.2727 46.2143 42.2727H41.8214C41.4331 42.2727 41.0606 42.1195 40.786 41.8467C40.5114 41.5739 40.3571 41.204 40.3571 40.8182C40.3571 40.4324 40.5114 40.0624 40.786 39.7897C41.0606 39.5169 41.4331 39.3636 41.8214 39.3636Z" fill="white"/>
</svg>
