<svg width="14" height="16" viewBox="0 0 14 16" fill="none" xmlns="http://www.w3.org/2000/svg">
<path d="M6.41068 0.246365L0.158558 7.01452C0.0631985 7.11614 0.00739521 7.24669 0.00072733 7.38376C-0.00606108 7.51915 0.0346693 7.64223 0.122919 7.753L6.3725 15.704C6.4425 15.795 6.53796 15.8701 6.64615 15.9218C6.75652 15.9733 6.87747 16 7 16C7.12253 16 7.24348 15.9733 7.35384 15.9218C7.46193 15.8711 7.55613 15.7965 7.62877 15.704L13.8784 7.753C13.9633 7.648 14.0062 7.5169 13.9993 7.38376C13.9926 7.24669 13.9368 7.11614 13.8414 7.01452L7.58932 0.246365C7.5156 0.167985 7.42531 0.105859 7.32457 0.0642068C7.17129 0.000391451 7.00143 -0.0163594 6.83798 0.0162198C6.67453 0.0487991 6.52537 0.129136 6.41068 0.246365Z" fill="#0086FF"/>
</svg>
