<svg width="19" height="20" viewBox="0 0 19 20" fill="none" xmlns="http://www.w3.org/2000/svg">
<path d="M12.701 8.20075C12.701 9.15553 12.3218 10.0712 11.6466 10.7463C10.9715 11.4215 10.0558 11.8007 9.10105 11.8007C8.14627 11.8007 7.2306 11.4215 6.55547 10.7463C5.88033 10.0712 5.50105 9.15553 5.50105 8.20075M1.09375 4.63135H17.1083" stroke="white" stroke-width="2" stroke-linecap="round" stroke-linejoin="round"/>
<path d="M1.36 4.1203C1.12632 4.43187 1 4.81083 1 5.2003V17.2C1 17.6774 1.18964 18.1352 1.52721 18.4728C1.86477 18.8104 2.32261 19 2.8 19H15.4C15.8774 19 16.3352 18.8104 16.6728 18.4728C17.0104 18.1352 17.2 17.6774 17.2 17.2V5.2003C17.2 4.81083 17.0737 4.43187 16.84 4.1203L15.04 1.72C14.8723 1.49645 14.6549 1.315 14.405 1.19003C14.155 1.06506 13.8794 1 13.6 1H4.6C4.32056 1 4.04496 1.06506 3.79502 1.19003C3.54508 1.315 3.32766 1.49645 3.16 1.72L1.36 4.1203Z" stroke="white" stroke-width="2" stroke-linecap="round" stroke-linejoin="round"/>
</svg>
