<svg width="70" height="70" viewBox="0 0 70 70" fill="none" xmlns="http://www.w3.org/2000/svg">
<rect width="70" height="70" rx="12" fill="#0086FF"/>
<path d="M16.4702 25.1176L28.8236 44.8824M50.3729 56C54.0593 49.6152 56 42.3725 56 35C56 27.6275 54.0593 20.3848 50.3729 14M39.6748 49.8235C42.277 45.3166 43.6469 40.2041 43.6469 35C43.6469 29.7959 42.277 24.6834 39.6748 20.1765M28.6457 44.8824C30.3805 41.8777 31.2938 38.4694 31.2938 35C31.2938 31.5306 30.3805 28.1223 28.6457 25.1176M16.6481 44.8824C14.9133 41.8777 14 38.4694 14 35C14 31.5306 14.9133 28.1223 16.6481 25.1176" stroke="white" stroke-width="2" stroke-linecap="round"/>
</svg>
