<svg width="20" height="24" viewBox="0 0 20 24" fill="none" xmlns="http://www.w3.org/2000/svg">
<path fill-rule="evenodd" clip-rule="evenodd" d="M10 0C8.56026 0 7.17949 0.558636 6.16144 1.55302C5.1434 2.54739 4.57146 3.89606 4.57146 5.30233C4.57146 6.70859 5.1434 8.05726 6.16144 9.05164C7.17949 10.046 8.56026 10.6047 10 10.6047C11.4397 10.6047 12.8205 10.046 13.8386 9.05164C14.8566 8.05726 15.4285 6.70859 15.4285 5.30233C15.4285 3.89606 14.8566 2.54739 13.8386 1.55302C12.8205 0.558636 11.4397 0 10 0ZM6.28574 5.30233C6.28574 4.34015 6.67706 3.41737 7.37362 2.73701C8.07018 2.05664 9.01492 1.67442 10 1.67442C10.9851 1.67442 11.9298 2.05664 12.6264 2.73701C13.3229 3.41737 13.7143 4.34015 13.7143 5.30233C13.7143 6.26451 13.3229 7.18728 12.6264 7.86764C11.9298 8.54801 10.9851 8.93023 10 8.93023C9.01492 8.93023 8.07018 8.54801 7.37362 7.86764C6.67706 7.18728 6.28574 6.26451 6.28574 5.30233ZM10 12.2791C7.35659 12.2791 4.92003 12.8662 3.11547 13.8575C1.3372 14.8353 6.38875e-05 16.3155 6.38875e-05 18.1395V18.2534C-0.00107896 19.5505 -0.00222191 21.178 1.45948 22.3412C2.17834 22.9127 3.18519 23.3202 4.54518 23.5881C5.90745 23.8582 7.68459 24 10 24C12.3154 24 14.0914 23.8582 15.456 23.5881C16.816 23.3202 17.8217 22.9127 18.5417 22.3412C20.0034 21.178 20.0011 19.5505 19.9999 18.2534V18.1395C19.9999 16.3155 18.6628 14.8353 16.8857 13.8575C15.08 12.8662 12.6446 12.2791 10 12.2791ZM1.71434 18.1395C1.71434 17.1896 2.42519 16.1581 3.95547 15.3176C5.45946 14.4915 7.5943 13.9535 10.0011 13.9535C12.4057 13.9535 14.5405 14.4915 16.0445 15.3176C17.5759 16.1581 18.2857 17.1896 18.2857 18.1395C18.2857 19.5996 18.2399 20.4212 17.4582 21.0419C17.0354 21.379 16.3268 21.7083 15.1154 21.9472C13.9074 22.186 12.256 22.3256 10 22.3256C7.74401 22.3256 6.09145 22.186 4.8846 21.9472C3.67318 21.7083 2.96462 21.379 2.54176 21.043C1.76005 20.4212 1.71434 19.5996 1.71434 18.1395Z" fill="white"/>
</svg>
