<svg width="36" height="44" viewBox="0 0 36 44" fill="none" xmlns="http://www.w3.org/2000/svg">
<path d="M17.8 24.1C21.2794 24.1 24.1 21.2794 24.1 17.8C24.1 14.3206 21.2794 11.5 17.8 11.5C14.3206 11.5 11.5 14.3206 11.5 17.8C11.5 21.2794 14.3206 24.1 17.8 24.1Z" stroke="black" stroke-width="2" stroke-linecap="round" stroke-linejoin="round"/>
<path d="M17.8 1C13.3444 1 9.07122 2.77 5.92061 5.92061C2.77 9.07122 1 13.3444 1 17.8C1 21.7732 1.8442 24.373 4.15 27.25L17.8 43L31.45 27.25C33.7558 24.373 34.6 21.7732 34.6 17.8C34.6 13.3444 32.83 9.07122 29.6794 5.92061C26.5288 2.77 22.2556 1 17.8 1Z" stroke="black" stroke-width="2" stroke-linecap="round" stroke-linejoin="round"/>
</svg>
